<svg xmlns="http://www.w3.org/2000/svg" height="24" viewBox="0 -960 960 960" width="24"><path d="M480-481q-27.6 0-47.8-19.5Q412-520 412-549v-309q0-27.6 20.2-47.8Q452.4-926 480-926q27.6 0 47.8 20.2Q548-885.6 548-858v309q0 29-20.2 48.5T480-481Zm0 407q-83.833 0-157.694-31.996-73.862-31.996-129.167-87.436-55.306-55.44-87.222-129.483Q74-396.958 74-481q0-61.92 16.5-120.46Q107-660 143-710q17-24 47-26.5t53 18.5q19 19 20 46t-13 50q-19 32-29.5 67.5T210-480.554q0 112.56 78.5 191.557Q367-210 480-210t191.5-79.127Q750-368.254 750-481q0-38-10.5-74.5T708-624q-14-23-13.5-49t20.5-45q23-21 54-19t49 27q36 51 52 109.5T886-481q0 84.042-31.917 158.085-31.916 74.043-87.222 129.483-55.305 55.44-129.167 87.436Q563.833-74 480-74Z"/></svg>